# File created by Blade
# Date/Time:  Wed Jan 21 18:02:28 2015
#---------------------------------------------------------
:version 1.10
:name HOM
:units
  mass 1.0
  length 1.000000
  angle deg
:documentation
     Acclaim Skeleton File
:root
   axis xyz
   order TX TY TZ RX RY RZ
   position 0.000000 0.000000 0.000000
   orientation 0 0 0
:bonedata
   begin
      id 1
      name Spine_dum
      direction 0.000000 1.000000 0.000000
      length 7.067664
      axis 0.0 0.0 0.0 xyz
   end
   begin
      id 2
      name LeftUpLeg_dum
      direction 1.000000 0.000000 0.000000
      length 4.013002
      axis 0.0 0.0 0.0 xyz
   end
   begin
      id 3
      name RightUpLeg_dum
      direction -1.000000 0.000000 0.000000
      length 4.013002
      axis 0.0 0.0 0.0 xyz
   end
   begin
      id 4
      name Spine
      direction 0.000000 1.000000 0.000000
      length 0.000000
      axis 0.0 0.0 0.0 xyz
      dof rx ry rz
   end
   begin
      id 5
      name Spine_dum1
      direction 0.000000 1.000000 0.000000
      length 15.039886
      axis 0.0 0.0 0.0 xyz
   end
   begin
      id 6
      name Spine_dum2
      direction 0.000000 1.000000 0.000000
      length 10.530368
      axis 0.0 0.0 0.0 xyz
   end
   begin
      id 7
      name Spine_dum3
      direction 0.000000 1.000000 0.000000
      length 10.530368
      axis 0.0 0.0 0.0 xyz
   end
   begin
      id 8
      name Head
      direction 0.000000 1.000000 0.000000
      length 4.527550
      axis 0.0 0.0 0.0 xyz
      dof rx ry rz
   end
   begin
      id 9
      name LeftShoulder
      direction 1.000000 0.000000 0.000000
      length 7.028855
      axis 0.0 0.0 -90.0 xyz
      dof rx ry rz
   end
   begin
      id 10
      name LeftArm
      direction 1.000000 0.000000 0.000000
      length 10.797705
      axis 0.0 0.0 -90.0 xyz
      dof rx ry rz
   end
   begin
      id 11
      name LeftForeArm
      direction 1.000000 0.000000 0.000000
      length 7.907442
      axis 0.0 0.0 -90.0 xyz
      dof ry rz rx
   end
   begin
      id 12
      name LeftHand
      direction 0.000000 0.000000 0.000000
      length 0.000000
      axis 0.0 0.0 -90.0 xyz
      dof rx ry rz
   end
   begin
      id 13
      name LeftHand_dum1
      direction 0.000000 0.000000 0.000000
      length 0.000000
      axis 0.0 0.0 -90.0 xyz
   end
   begin
      id 14
      name LeftHand_dum2
      direction 1.000000 0.000000 0.000000
      length 3.937000
      axis 0.0 0.0 -90.0 xyz
   end
   begin
      id 15
      name LeftHandThumb1
      direction 0.000000 0.000000 1.000000
      length 3.937000
      axis 0.0 0.0 -90.0 xyz
      dof rx rz ry
   end
   begin
      id 16
      name RightShoulder
      direction -1.000000 0.000000 0.000000
      length 7.028855
      axis 0.0 0.0 90.0 xyz
      dof rx ry rz
   end
   begin
      id 17
      name RightArm
      direction -1.000000 0.000000 0.000000
      length 10.797705
      axis 0.0 0.0 90.0 xyz
      dof rx ry rz
   end
   begin
      id 18
      name RightForeArm
      direction -1.000000 0.000000 0.000000
      length 7.907442
      axis 0.0 0.0 90.0 xyz
      dof ry rz rx
   end
   begin
      id 19
      name RightHand
      direction 0.000000 0.000000 0.000000
      length 0.000000
      axis 0.0 0.0 90.0 xyz
      dof rx ry rz
   end
   begin
      id 20
      name RightHand_dum1
      direction 0.000000 0.000000 0.000000
      length 0.000000
      axis 0.0 0.0 90.0 xyz
   end
   begin
      id 21
      name RightHand_dum2
      direction -1.000000 0.000000 0.000000
      length 3.937000
      axis 0.0 0.0 90.0 xyz
   end
   begin
      id 22
      name RightHandThumb1
      direction 0.000000 0.000000 1.000000
      length 3.937000
      axis 0.0 0.0 90.0 xyz
      dof rx rz ry
   end
   begin
      id 23
      name LeftUpLeg
      direction 0.000000 -1.000000 0.000000
      length 16.899758
      axis 0.0 0.0 0.0 xyz
      dof rx ry rz
   end
   begin
      id 24
      name LeftLeg
      direction 0.000000 -1.000000 0.000000
      length 17.389183
      axis 0.0 0.0 0.0 xyz
      dof rx ry rz
   end
   begin
      id 25
      name LeftFoot
      direction 0.000000 -0.258819 0.965926
      length 4.924528
      axis 15.0 0.0 0.0 xyz
      dof rx ry rz
   end
   begin
      id 26
      name LeftToeBase
      direction 0.000000 0.000000 1.000000
      length 2.952750
      axis 0.0 0.0 0.0 xyz
      dof rx ry rz
   end
   begin
      id 27
      name RightUpLeg
      direction 0.000000 -1.000000 0.000000
      length 16.899758
      axis 0.0 0.0 0.0 xyz
      dof rx ry rz
   end
   begin
      id 28
      name RightLeg
      direction 0.000000 -1.000000 0.000000
      length 17.389183
      axis 0.0 0.0 0.0 xyz
      dof rx ry rz
   end
   begin
      id 29
      name RightFoot
      direction 0.000000 -0.258819 0.965926
      length 4.924528
      axis 15.0 0.0 0.0 xyz
      dof rx ry rz
   end
   begin
      id 30
      name RightToeBase
      direction 0.000000 0.000000 1.000000
      length 2.952750
      axis 0.0 0.0 0.0 xyz
      dof rx ry rz
   end
:hierarchy
   begin
      root Spine_dum LeftUpLeg_dum RightUpLeg_dum
      Spine_dum Spine
      LeftUpLeg_dum LeftUpLeg
      RightUpLeg_dum RightUpLeg
      Spine Spine_dum1 Spine_dum2 Spine_dum3
      Spine_dum1 Head
      Spine_dum2 LeftShoulder
      Spine_dum3 RightShoulder
      LeftShoulder LeftArm
      LeftArm LeftForeArm
      LeftForeArm LeftHand
      LeftHand LeftHand_dum1 LeftHand_dum2
      LeftHand_dum1 LeftHandThumb1
      RightShoulder RightArm
      RightArm RightForeArm
      RightForeArm RightHand
      RightHand RightHand_dum1 RightHand_dum2
      RightHand_dum1 RightHandThumb1
      LeftUpLeg LeftLeg
      LeftLeg LeftFoot
      LeftFoot LeftToeBase
      RightUpLeg RightLeg
      RightLeg RightFoot
      RightFoot RightToeBase
   end

# File created by Blade
# Date/Time:  Wed Jan 21 18:02:19 2015
# Frame Rate: 120.000 fps
#------------------------------------------------------
:FULLY-SPECIFIED
:DEGREES
43
root 19.375767 35.544438 -21.782167 -172.192556 0.306412 -178.852103
Spine -17.507566 2.092278 -0.470462
Head 13.740572 -2.618981 1.811593
LeftShoulder -11.124957 -31.359338 16.530315
LeftArm 6.326697 7.196795 -11.738401
LeftForeArm 6.531311 -0.000000 -1.690891
LeftHand -7.014037 -0.000000 2.393656
LeftHandThumb1 -26.253704 0.000000 33.147579
RightShoulder -12.108257 -6.151399 -6.144230
RightArm 12.290364 33.730850 17.129684
RightForeArm -34.243284 0.000000 9.310475
RightHand -6.529797 -0.000000 -13.937596
RightHandThumb1 -24.326973 -0.000000 -32.862282
LeftUpLeg 0.907093 11.079792 0.910866
LeftLeg -4.046787 -0.000000 0.000000
LeftFoot -20.426049 25.419215 -11.948827
LeftToeBase 24.458758 -0.000000 -0.000000
RightUpLeg -0.272310 -7.990518 0.596424
RightLeg -1.804370 -0.000000 0.000000
RightFoot -21.524031 -24.292447 16.202210
RightToeBase 23.380229 -0.000000 -0.000000
44
root 19.355880 35.548382 -21.740278 -172.420111 0.325335 -178.848478
Spine -17.125227 2.176045 -0.488370
Head 13.956886 -2.700439 1.871596
LeftShoulder -10.826334 -31.370748 16.092062
LeftArm 6.512001 7.522688 -12.037887
LeftForeArm 6.396238 -0.000000 -1.424263
LeftHand -6.996984 0.000000 2.421879
LeftHandThumb1 -26.253704 0.000000 33.147579
RightShoulder -11.908477 -6.224312 -6.044966
RightArm 12.487248 33.647271 17.702353
RightForeArm -33.970754 -0.000000 9.619313
RightHand -6.606166 0.000000 -14.852255
RightHandThumb1 -24.326973 -0.000000 -32.862282
LeftUpLeg 1.016173 10.951101 0.899602
LeftLeg -3.933550 -0.000000 0.000000
LeftFoot -20.437465 25.588827 -11.837513
LeftToeBase 24.516353 -0.000000 -0.000000
RightUpLeg -0.220103 -7.964425 0.541748
RightLeg -1.598301 -0.000000 0.000000
RightFoot -21.539371 -24.303171 16.214039
RightToeBase 23.482444 -0.000000 -0.000000
45
root 19.331859 35.552054 -21.698849 -172.654835 0.251414 -178.869397
Spine -16.731443 2.144148 -0.504432
Head 14.171712 -2.769451 1.934955
LeftShoulder -10.623700 -31.203773 15.614897
LeftArm 6.907292 7.775283 -12.313446
LeftForeArm 6.361862 -0.000000 -1.300559
LeftHand -6.970375 0.000000 2.379179
LeftHandThumb1 -26.253704 0.000000 33.147579
RightShoulder -11.673658 -6.209679 -5.983868
RightArm 12.661600 33.578570 18.337980
RightForeArm -33.904436 -0.000000 9.908546
RightHand -6.562877 -0.000000 -15.503781
RightHandThumb1 -24.326973 -0.000000 -32.862282
LeftUpLeg 1.110475 10.719237 0.861254
LeftLeg -3.809152 -0.000000 0.000000
LeftFoot -20.511744 25.769578 -11.801620
LeftToeBase 24.532546 -0.000000 -0.000000
RightUpLeg -0.138858 -8.058189 0.463129
RightLeg -1.410667 -0.000000 0.000000
RightFoot -21.573095 -24.238173 16.197941
RightToeBase 23.416561 -0.000000 -0.000000
46
root 19.310822 35.556746 -21.648581 -172.804335 0.262776 -178.852998
Spine -16.433339 2.257455 -0.506384
Head 14.413719 -2.882562 1.977011
LeftShoulder -10.275353 -31.123679 15.075121
LeftArm 7.163241 8.012667 -12.622616
LeftForeArm 6.226469 -0.000000 -1.076161
LeftHand -6.940921 -0.000000 2.287676
LeftHandThumb1 -26.253704 0.000000 33.147579
RightShoulder -11.514853 -6.378672 -5.863858
RightArm 12.963995 33.510734 19.001759
RightForeArm -33.679089 -0.000000 10.194329
RightHand -6.595941 -0.000000 -16.127906
RightHandThumb1 -24.326973 -0.000000 -32.862282
LeftUpLeg 1.106919 10.600302 0.838683
LeftLeg -3.676997 -0.000000 0.000000
LeftFoot -20.502316 25.977248 -11.691002
LeftToeBase 24.512219 -0.000000 -0.000000
RightUpLeg -0.197628 -7.945969 0.433371
RightLeg -1.167600 -0.000000 0.000000
RightFoot -21.629993 -24.308189 16.265116
RightToeBase 23.407436 -0.000000 -0.000000
47
root 19.282109 35.560922 -21.602561 -173.026735 0.218357 -178.869004
Spine -16.054061 2.282415 -0.511201
Head 14.683515 -2.934200 2.021320
LeftShoulder -10.001000 -30.934493 14.541258
LeftArm 7.511720 8.259966 -12.994851
LeftForeArm 6.138419 -0.000000 -0.874902
LeftHand -6.859772 -0.000000 2.288556
LeftHandThumb1 -26.253704 0.000000 33.147579
RightShoulder -11.268845 -6.446401 -5.779365
RightArm 13.119489 33.344275 19.617995
RightForeArm -33.609150 -0.000000 10.539961
RightHand -6.627964 0.000000 -16.483796
RightHandThumb1 -24.326973 -0.000000 -32.862282
LeftUpLeg 1.176316 10.365440 0.793762
LeftLeg -3.531047 -0.000000 0.000000
LeftFoot -20.551206 26.180386 -11.630011
LeftToeBase 24.535951 -0.000000 -0.000000
RightUpLeg -0.185036 -7.981872 0.352935
RightLeg -0.891213 -0.000000 0.000000
RightFoot -21.701237 -24.278323 16.297051
RightToeBase 23.390298 -0.000000 -0.000000
48
root 19.255303 35.563605 -21.556426 -173.361614 0.227186 -178.866005
Spine -15.500948 2.357801 -0.504049
Head 14.888605 -3.017934 2.080390
LeftShoulder -9.672003 -30.881780 14.009033
LeftArm 7.705274 8.495849 -13.437427
LeftForeArm 6.094439 -0.000000 -0.587872
LeftHand -7.193075 -0.000000 2.629676
LeftHandThumb1 -26.253704 0.000000 33.147579
RightShoulder -11.072345 -6.586183 -5.585334
RightArm 13.464181 33.166191 20.236169
RightForeArm -33.163840 0.000000 10.737798
RightHand -6.511903 -0.000000 -17.079607
RightHandThumb1 -24.326973 -0.000000 -32.862282
LeftUpLeg 1.372388 10.193736 0.786951
LeftLeg -3.393676 -0.000000 0.000000
LeftFoot -20.591937 26.371474 -11.540694
LeftToeBase 24.473785 -0.000000 -0.000000
RightUpLeg -0.068616 -7.940453 0.277929
RightLeg -0.614905 -0.000000 0.000000
RightFoot -21.754436 -24.349147 16.347443
RightToeBase 23.297982 -0.000000 -0.000000
